<?xml version="1.0" encoding="UTF-8" standalone="no"?>
<!DOCTYPE svg PUBLIC "-//W3C//DTD SVG 1.1//EN" "http://www.w3.org/Graphics/SVG/1.1/DTD/svg11.dtd">
<!-- Generated by graphviz version 2.40.1 (20161225.0304)
 -->
<!-- Title: classes Pages: 1 -->
<svg width="1132pt" height="1649pt" viewBox="0.00 0.00 1132.00 1648.80" xmlns="http://www.w3.org/2000/svg" xmlns:xlink="http://www.w3.org/1999/xlink">
<g id="graph0" class="graph" transform="scale(1 1) rotate(0) translate(4 1644.8)">
<title>classes</title>
<polygon fill="#ffffff" stroke="transparent" points="-4,4 -4,-1644.8 1128,-1644.8 1128,4 -4,4"/>
<g id="clust1" class="cluster">
<title>clusterEnums</title>
<polygon fill="none" stroke="#000000" points="545,-1436.2 545,-1594.8 1116,-1594.8 1116,-1436.2 545,-1436.2"/>
<text text-anchor="middle" x="830.5" y="-1578.2" font-family="Times,serif" font-size="14.00" fill="#000000">Enums</text>
</g>
<g id="clust2" class="cluster">
<title>clusterComponents</title>
<polygon fill="none" stroke="#000000" points="8,-1198.8 8,-1357.4 862,-1357.4 862,-1198.8 8,-1198.8"/>
<text text-anchor="middle" x="435" y="-1340.8" font-family="Times,serif" font-size="14.00" fill="#000000">Components</text>
</g>
<!-- Vec2 -->
<g id="node1" class="node">
<title>Vec2</title>
<polygon fill="none" stroke="#000000" points="363.2685,-1365.9 363.2685,-1640.3 534.7315,-1640.3 534.7315,-1365.9 363.2685,-1365.9"/>
<text text-anchor="middle" x="449" y="-1623.7" font-family="Times,serif" font-size="14.00" fill="#000000">Vec2</text>
<polyline fill="none" stroke="#000000" points="363.2685,-1615.5 534.7315,-1615.5 "/>
<text text-anchor="start" x="371.2685" y="-1598.9" font-family="Times,serif" font-size="14.00" fill="#000000">- x : double</text>
<text text-anchor="start" x="371.2685" y="-1582.1" font-family="Times,serif" font-size="14.00" fill="#000000">- y : double</text>
<polyline fill="none" stroke="#000000" points="363.2685,-1573.9 534.7315,-1573.9 "/>
<text text-anchor="start" x="371.2685" y="-1557.3" font-family="Times,serif" font-size="14.00" fill="#000000">+ normalize() : void</text>
<text text-anchor="start" x="371.2685" y="-1540.5" font-family="Times,serif" font-size="14.00" fill="#000000">+ length() : double</text>
<text text-anchor="start" x="371.2685" y="-1507.7" font-family="Times,serif" font-size="14.00" fill="#000000">+ operator + (Vec2) : Vec2</text>
<text text-anchor="start" x="371.2685" y="-1490.9" font-family="Times,serif" font-size="14.00" fill="#000000">+ operator - (Vec2) : Vec2</text>
<text text-anchor="start" x="371.2685" y="-1474.1" font-family="Times,serif" font-size="14.00" fill="#000000">+ operator / (Vec2) : Vec2</text>
<text text-anchor="start" x="371.2685" y="-1457.3" font-family="Times,serif" font-size="14.00" fill="#000000">+ operator * (Vec2) : Vec2</text>
<text text-anchor="start" x="371.2685" y="-1440.5" font-family="Times,serif" font-size="14.00" fill="#000000">+ operator == (Vec2) : bool</text>
<text text-anchor="start" x="371.2685" y="-1423.7" font-family="Times,serif" font-size="14.00" fill="#000000">+ operator != (Vec2) : bool</text>
<text text-anchor="start" x="371.2685" y="-1390.9" font-family="Times,serif" font-size="14.00" fill="#000000">+ getX() : double</text>
<text text-anchor="start" x="371.2685" y="-1374.1" font-family="Times,serif" font-size="14.00" fill="#000000">+ getY() : double</text>
</g>
<!-- CTransform -->
<g id="node6" class="node">
<title>CTransform</title>
<polygon fill="none" stroke="#000000" points="741.5313,-1224.1 741.5313,-1307.3 854.4687,-1307.3 854.4687,-1224.1 741.5313,-1224.1"/>
<text text-anchor="middle" x="798" y="-1290.7" font-family="Times,serif" font-size="14.00" fill="#000000">CTransform</text>
<polyline fill="none" stroke="#000000" points="741.5313,-1282.5 854.4687,-1282.5 "/>
<text text-anchor="start" x="749.5313" y="-1265.9" font-family="Times,serif" font-size="14.00" fill="#000000">+ position : Vec2</text>
<text text-anchor="start" x="749.5313" y="-1249.1" font-family="Times,serif" font-size="14.00" fill="#000000">+ velocity : Vec2</text>
<text text-anchor="start" x="749.5313" y="-1232.3" font-family="Times,serif" font-size="14.00" fill="#000000">+ scale : Vec2</text>
</g>
<!-- Vec2&#45;&gt;CTransform -->
<g id="edge1" class="edge">
<title>Vec2-&gt;CTransform</title>
<path fill="none" stroke="#000000" d="M535.0899,-1368.966C537.0246,-1367.7167 538.9945,-1366.5263 541,-1365.4 578.2336,-1344.4891 695.4812,-1377.7947 733,-1357.4 750.0697,-1348.1212 763.6937,-1332.1896 773.9702,-1316.1834"/>
<polygon fill="#000000" stroke="#000000" points="777.1485,-1317.6918 779.3356,-1307.3252 771.1611,-1314.0653 777.1485,-1317.6918"/>
</g>
<!-- CBoundingBox -->
<g id="node7" class="node">
<title>CBoundingBox</title>
<polygon fill="none" stroke="#000000" points="620.0498,-1240.9 620.0498,-1290.5 723.9502,-1290.5 723.9502,-1240.9 620.0498,-1240.9"/>
<text text-anchor="middle" x="672" y="-1273.9" font-family="Times,serif" font-size="14.00" fill="#000000">CBoundingBox</text>
<polyline fill="none" stroke="#000000" points="620.0498,-1265.7 723.9502,-1265.7 "/>
<text text-anchor="start" x="628.0498" y="-1249.1" font-family="Times,serif" font-size="14.00" fill="#000000">+ size : Vec2</text>
</g>
<!-- Vec2&#45;&gt;CBoundingBox -->
<g id="edge2" class="edge">
<title>Vec2-&gt;CBoundingBox</title>
<path fill="none" stroke="#000000" d="M534.8524,-1369.4143C536.8646,-1368.0128 538.9138,-1366.6728 541,-1365.4 567.7317,-1349.0918 584.2847,-1373.7351 611,-1357.4 632.5465,-1344.2254 648.0975,-1320.235 658.1041,-1300.0967"/>
<polygon fill="#000000" stroke="#000000" points="661.3517,-1301.4153 662.443,-1290.8768 655.018,-1298.4346 661.3517,-1301.4153"/>
</g>
<!-- CSprite -->
<g id="node8" class="node">
<title>CSprite</title>
<polygon fill="none" stroke="#000000" points="460.1652,-1207.3 460.1652,-1324.1 601.8348,-1324.1 601.8348,-1207.3 460.1652,-1207.3"/>
<text text-anchor="middle" x="531" y="-1307.5" font-family="Times,serif" font-size="14.00" fill="#000000">CSprite</text>
<polyline fill="none" stroke="#000000" points="460.1652,-1299.3 601.8348,-1299.3 "/>
<text text-anchor="start" x="468.1652" y="-1282.7" font-family="Times,serif" font-size="14.00" fill="#000000">+ filePath : std::string</text>
<text text-anchor="start" x="468.1652" y="-1265.9" font-family="Times,serif" font-size="14.00" fill="#000000">+ texture : sf::Texture</text>
<text text-anchor="start" x="468.1652" y="-1249.1" font-family="Times,serif" font-size="14.00" fill="#000000">+ sprite : sf::Sprite</text>
<text text-anchor="start" x="468.1652" y="-1232.3" font-family="Times,serif" font-size="14.00" fill="#000000">+ textureOffset : Vec2</text>
<text text-anchor="start" x="468.1652" y="-1215.5" font-family="Times,serif" font-size="14.00" fill="#000000">+ spriteSize : Vec2</text>
</g>
<!-- Vec2&#45;&gt;CSprite -->
<g id="edge3" class="edge">
<title>Vec2-&gt;CSprite</title>
<path fill="none" stroke="#000000" d="M496.4623,-1365.6909C500.2467,-1354.7345 503.9558,-1343.9962 507.4562,-1333.8622"/>
<polygon fill="#000000" stroke="#000000" points="510.7872,-1334.9386 510.7439,-1324.3439 504.1708,-1332.6532 510.7872,-1334.9386"/>
</g>
<!-- CAnimation -->
<g id="node9" class="node">
<title>CAnimation</title>
<polygon fill="none" stroke="#000000" points="293.6421,-1215.7 293.6421,-1315.7 442.3579,-1315.7 442.3579,-1215.7 293.6421,-1215.7"/>
<text text-anchor="middle" x="368" y="-1299.1" font-family="Times,serif" font-size="14.00" fill="#000000">CAnimation</text>
<polyline fill="none" stroke="#000000" points="293.6421,-1290.9 442.3579,-1290.9 "/>
<text text-anchor="start" x="301.6421" y="-1274.3" font-family="Times,serif" font-size="14.00" fill="#000000">+ loop : bool</text>
<text text-anchor="start" x="301.6421" y="-1257.5" font-family="Times,serif" font-size="14.00" fill="#000000">+ animationLength : int</text>
<text text-anchor="start" x="301.6421" y="-1240.7" font-family="Times,serif" font-size="14.00" fill="#000000">+ animationSpeed : int</text>
<text text-anchor="start" x="301.6421" y="-1223.9" font-family="Times,serif" font-size="14.00" fill="#000000">+ currentFrame : int</text>
</g>
<!-- Vec2&#45;&gt;CAnimation -->
<g id="edge4" class="edge">
<title>Vec2-&gt;CAnimation</title>
<path fill="none" stroke="#000000" d="M402.1165,-1365.6909C397.3407,-1351.6936 392.6863,-1338.0523 388.4282,-1325.5722"/>
<polygon fill="#000000" stroke="#000000" points="391.6451,-1324.1617 385.1034,-1315.8277 385.0201,-1326.4222 391.6451,-1324.1617"/>
</g>
<!-- CGravity -->
<g id="node10" class="node">
<title>CGravity</title>
<polygon fill="none" stroke="#000000" points="162.539,-1240.9 162.539,-1290.5 275.461,-1290.5 275.461,-1240.9 162.539,-1240.9"/>
<text text-anchor="middle" x="219" y="-1273.9" font-family="Times,serif" font-size="14.00" fill="#000000">CGravity</text>
<polyline fill="none" stroke="#000000" points="162.539,-1265.7 275.461,-1265.7 "/>
<text text-anchor="start" x="170.539" y="-1249.1" font-family="Times,serif" font-size="14.00" fill="#000000">+ velocity : Vec2</text>
</g>
<!-- Vec2&#45;&gt;CGravity -->
<g id="edge5" class="edge">
<title>Vec2-&gt;CGravity</title>
<path fill="none" stroke="#000000" d="M363.0656,-1433.0967C336.8612,-1410.1147 308.7292,-1383.6959 285,-1357.4 268.6252,-1339.254 252.554,-1317.0468 240.3706,-1299.0313"/>
<polygon fill="#000000" stroke="#000000" points="243.1797,-1296.9354 234.7176,-1290.5602 237.3571,-1300.821 243.1797,-1296.9354"/>
</g>
<!-- CMenuAction -->
<g id="node11" class="node">
<title>CMenuAction</title>
<polygon fill="none" stroke="#000000" points="15.7627,-1240.9 15.7627,-1290.5 144.2373,-1290.5 144.2373,-1240.9 15.7627,-1240.9"/>
<text text-anchor="middle" x="80" y="-1273.9" font-family="Times,serif" font-size="14.00" fill="#000000">CMenuAction</text>
<polyline fill="none" stroke="#000000" points="15.7627,-1265.7 144.2373,-1265.7 "/>
<text text-anchor="middle" x="80" y="-1249.1" font-family="Times,serif" font-size="14.00" fill="#000000">+ MENU_ACTION</text>
</g>
<!-- Vec2&#45;&gt;CMenuAction -->
<g id="edge6" class="edge">
<title>Vec2-&gt;CMenuAction</title>
<path fill="none" stroke="#000000" d="M363.2668,-1472.3191C301.151,-1447.3877 217.3105,-1408.1049 154,-1357.4 133.5067,-1340.9871 114.9622,-1317.9828 101.5634,-1299.1216"/>
<polygon fill="#000000" stroke="#000000" points="104.3565,-1297.0074 95.7808,-1290.7858 98.6049,-1300.9973 104.3565,-1297.0074"/>
</g>
<!-- MENU_ACTION -->
<g id="node2" class="node">
<title>MENU_ACTION</title>
<polygon fill="none" stroke="#000000" points="989.6767,-1469.9 989.6767,-1536.3 1108.3233,-1536.3 1108.3233,-1469.9 989.6767,-1469.9"/>
<text text-anchor="middle" x="1049" y="-1519.7" font-family="Times,serif" font-size="14.00" fill="#000000">enum</text>
<text text-anchor="middle" x="1049" y="-1502.9" font-family="Times,serif" font-size="14.00" fill="#000000">MENU_ACTION</text>
<polyline fill="none" stroke="#000000" points="989.6767,-1494.7 1108.3233,-1494.7 "/>
<text text-anchor="middle" x="1049" y="-1478.1" font-family="Times,serif" font-size="14.00" fill="#000000">SELECT_LEVEL</text>
</g>
<!-- ENTITY_TAG -->
<g id="node3" class="node">
<title>ENTITY_TAG</title>
<polygon fill="none" stroke="#000000" points="852.487,-1444.7 852.487,-1561.5 971.513,-1561.5 971.513,-1444.7 852.487,-1444.7"/>
<text text-anchor="middle" x="912" y="-1544.9" font-family="Times,serif" font-size="14.00" fill="#000000">enum</text>
<text text-anchor="middle" x="912" y="-1528.1" font-family="Times,serif" font-size="14.00" fill="#000000"> ENTITY_TAG</text>
<polyline fill="none" stroke="#000000" points="852.487,-1519.9 971.513,-1519.9 "/>
<text text-anchor="start" x="860.487" y="-1503.3" font-family="Times,serif" font-size="14.00" fill="#000000">PLAYER</text>
<text text-anchor="start" x="860.487" y="-1486.5" font-family="Times,serif" font-size="14.00" fill="#000000"> TILE</text>
<text text-anchor="start" x="860.487" y="-1469.7" font-family="Times,serif" font-size="14.00" fill="#000000"> BULLET</text>
<text text-anchor="start" x="860.487" y="-1452.9" font-family="Times,serif" font-size="14.00" fill="#000000"> MENU_OPTION</text>
</g>
<!-- TRIGGER_TYPE -->
<g id="node4" class="node">
<title>TRIGGER_TYPE</title>
<polygon fill="none" stroke="#000000" points="683.1511,-1453.1 683.1511,-1553.1 834.8489,-1553.1 834.8489,-1453.1 683.1511,-1453.1"/>
<text text-anchor="middle" x="759" y="-1536.5" font-family="Times,serif" font-size="14.00" fill="#000000">enum</text>
<text text-anchor="middle" x="759" y="-1519.7" font-family="Times,serif" font-size="14.00" fill="#000000"> TRIGGER_TYPE</text>
<polyline fill="none" stroke="#000000" points="683.1511,-1511.5 834.8489,-1511.5 "/>
<text text-anchor="start" x="691.1511" y="-1494.9" font-family="Times,serif" font-size="14.00" fill="#000000">LOAD_LEVEL</text>
<text text-anchor="start" x="691.1511" y="-1478.1" font-family="Times,serif" font-size="14.00" fill="#000000"> MOVEMENT_START</text>
<text text-anchor="start" x="691.1511" y="-1461.3" font-family="Times,serif" font-size="14.00" fill="#000000"> MOVEMENT_STOP</text>
</g>
<!-- SCENE_TYPE -->
<g id="node5" class="node">
<title>SCENE_TYPE</title>
<polygon fill="none" stroke="#000000" points="552.9793,-1461.5 552.9793,-1544.7 665.0207,-1544.7 665.0207,-1461.5 552.9793,-1461.5"/>
<text text-anchor="middle" x="609" y="-1528.1" font-family="Times,serif" font-size="14.00" fill="#000000">enum</text>
<text text-anchor="middle" x="609" y="-1511.3" font-family="Times,serif" font-size="14.00" fill="#000000"> SCENE_TYPE</text>
<polyline fill="none" stroke="#000000" points="552.9793,-1503.1 665.0207,-1503.1 "/>
<text text-anchor="start" x="560.9793" y="-1486.5" font-family="Times,serif" font-size="14.00" fill="#000000">GAME_SCENE</text>
<text text-anchor="start" x="560.9793" y="-1469.7" font-family="Times,serif" font-size="14.00" fill="#000000"> MENU_SCENE</text>
</g>
<!-- Entity -->
<g id="node12" class="node">
<title>Entity</title>
<polygon fill="none" stroke="#000000" points="298.2539,-944.7 298.2539,-1170.3 599.7461,-1170.3 599.7461,-944.7 298.2539,-944.7"/>
<text text-anchor="middle" x="449" y="-1153.7" font-family="Times,serif" font-size="14.00" fill="#000000">Entity</text>
<polyline fill="none" stroke="#000000" points="298.2539,-1145.5 599.7461,-1145.5 "/>
<text text-anchor="start" x="306.2539" y="-1128.9" font-family="Times,serif" font-size="14.00" fill="#000000">- componentTuple : std::tuple(CComponents...)</text>
<text text-anchor="start" x="306.2539" y="-1112.1" font-family="Times,serif" font-size="14.00" fill="#000000">- isAlive : bool</text>
<text text-anchor="start" x="306.2539" y="-1095.3" font-family="Times,serif" font-size="14.00" fill="#000000">- id : size_t</text>
<text text-anchor="start" x="306.2539" y="-1078.5" font-family="Times,serif" font-size="14.00" fill="#000000">- tag : ENTITY_TAG</text>
<polyline fill="none" stroke="#000000" points="298.2539,-1070.3 599.7461,-1070.3 "/>
<text text-anchor="start" x="306.2539" y="-1053.7" font-family="Times,serif" font-size="14.00" fill="#000000">- Entity() : constructor</text>
<text text-anchor="start" x="306.2539" y="-1036.9" font-family="Times,serif" font-size="14.00" fill="#000000">+ Template T addComponent(args : TArgs...) : T&amp;</text>
<text text-anchor="start" x="306.2539" y="-1020.1" font-family="Times,serif" font-size="14.00" fill="#000000">+ Template T removeComponent() : void</text>
<text text-anchor="start" x="306.2539" y="-1003.3" font-family="Times,serif" font-size="14.00" fill="#000000">+ Template T getComponent() : T&amp;</text>
<text text-anchor="start" x="306.2539" y="-986.5" font-family="Times,serif" font-size="14.00" fill="#000000">+ Template T hasComponent() : bool</text>
<text text-anchor="start" x="306.2539" y="-969.7" font-family="Times,serif" font-size="14.00" fill="#000000">+ isAlive() : bool</text>
<text text-anchor="start" x="306.2539" y="-952.9" font-family="Times,serif" font-size="14.00" fill="#000000">+ getTag() : ENTITY_TAG</text>
</g>
<!-- CTransform&#45;&gt;Entity -->
<g id="edge7" class="edge">
<title>CTransform-&gt;Entity</title>
<path fill="none" stroke="#000000" d="M761.5264,-1223.7528C752.706,-1214.903 742.9394,-1206.0582 733,-1198.8 695.1909,-1171.19 651.1744,-1146.3354 609.2428,-1125.4508"/>
<polygon fill="#000000" stroke="#000000" points="610.5664,-1122.2012 600.0496,-1120.9182 607.4709,-1128.4795 610.5664,-1122.2012"/>
</g>
<!-- CBoundingBox&#45;&gt;Entity -->
<g id="edge8" class="edge">
<title>CBoundingBox-&gt;Entity</title>
<path fill="none" stroke="#000000" d="M650.343,-1240.6039C638.9668,-1227.7722 624.5956,-1212.0992 611,-1198.8 603.7968,-1191.7538 596.3109,-1184.6222 588.6822,-1177.5015"/>
<polygon fill="#000000" stroke="#000000" points="590.7235,-1174.6212 581.0111,-1170.388 585.9638,-1179.754 590.7235,-1174.6212"/>
</g>
<!-- CSprite&#45;&gt;Entity -->
<g id="edge9" class="edge">
<title>CSprite-&gt;Entity</title>
<path fill="none" stroke="#000000" d="M507.9402,-1207.1506C504.5296,-1198.4909 500.9126,-1189.3073 497.2148,-1179.9185"/>
<polygon fill="#000000" stroke="#000000" points="500.4158,-1178.4947 493.4946,-1170.473 493.9027,-1181.06 500.4158,-1178.4947"/>
</g>
<!-- CAnimation&#45;&gt;Entity -->
<g id="edge10" class="edge">
<title>CAnimation-&gt;Entity</title>
<path fill="none" stroke="#000000" d="M387.5046,-1215.566C391.7572,-1204.6352 396.4367,-1192.6073 401.2576,-1180.2155"/>
<polygon fill="#000000" stroke="#000000" points="404.6032,-1181.2694 404.9671,-1170.6808 398.0795,-1178.7313 404.6032,-1181.2694"/>
</g>
<!-- CGravity&#45;&gt;Entity -->
<g id="edge11" class="edge">
<title>CGravity-&gt;Entity</title>
<path fill="none" stroke="#000000" d="M242.6723,-1240.7555C255.0445,-1227.9638 270.5778,-1212.2808 285,-1198.8 292.6726,-1191.6282 300.6244,-1184.3384 308.7029,-1177.0418"/>
<polygon fill="#000000" stroke="#000000" points="311.0578,-1179.6312 316.1532,-1170.3421 306.3772,-1174.4262 311.0578,-1179.6312"/>
</g>
<!-- CMenuAction&#45;&gt;Entity -->
<g id="edge12" class="edge">
<title>CMenuAction-&gt;Entity</title>
<path fill="none" stroke="#000000" d="M103.8474,-1240.8708C117.6682,-1227.3531 135.8778,-1210.9567 154,-1198.8 195.6931,-1170.8315 243.7722,-1145.3285 288.854,-1123.9238"/>
<polygon fill="#000000" stroke="#000000" points="290.5691,-1126.9849 298.1258,-1119.5588 287.5875,-1120.6517 290.5691,-1126.9849"/>
</g>
<!-- EntityManager -->
<g id="node13" class="node">
<title>EntityManager</title>
<polygon fill="none" stroke="#000000" points="278.67,-698.9 278.67,-907.7 619.33,-907.7 619.33,-698.9 278.67,-698.9"/>
<text text-anchor="middle" x="449" y="-891.1" font-family="Times,serif" font-size="14.00" fill="#000000">EntityManager</text>
<polyline fill="none" stroke="#000000" points="278.67,-882.9 619.33,-882.9 "/>
<text text-anchor="start" x="286.67" y="-866.3" font-family="Times,serif" font-size="14.00" fill="#000000">- toRemove : std::list(Entity&amp;)</text>
<text text-anchor="start" x="286.67" y="-849.5" font-family="Times,serif" font-size="14.00" fill="#000000">- toAdd : std::list(Entity&amp;)</text>
<text text-anchor="start" x="286.67" y="-832.7" font-family="Times,serif" font-size="14.00" fill="#000000">- idCount : size_t</text>
<text text-anchor="start" x="286.67" y="-815.9" font-family="Times,serif" font-size="14.00" fill="#000000">- entityList : std::list(Entity)</text>
<text text-anchor="middle" x="449" y="-799.1" font-family="Times,serif" font-size="14.00" fill="#000000">- entityMap : std::Map(ENTITY_TYPE, std::List(Entity))</text>
<polyline fill="none" stroke="#000000" points="278.67,-790.9 619.33,-790.9 "/>
<text text-anchor="start" x="286.67" y="-774.3" font-family="Times,serif" font-size="14.00" fill="#000000">+ addEntity(ENTITY_TYPE) : Entity&amp;</text>
<text text-anchor="start" x="286.67" y="-757.5" font-family="Times,serif" font-size="14.00" fill="#000000">+ removeEntity(Entity) : void</text>
<text text-anchor="start" x="286.67" y="-740.7" font-family="Times,serif" font-size="14.00" fill="#000000">+ getEntities() : &amp;std::list(Entity)</text>
<text text-anchor="start" x="286.67" y="-723.9" font-family="Times,serif" font-size="14.00" fill="#000000">+ getEntities(ENTITY_TAG) : &amp;std::list(Entity)</text>
<text text-anchor="start" x="286.67" y="-707.1" font-family="Times,serif" font-size="14.00" fill="#000000">+ update() : void</text>
</g>
<!-- Entity&#45;&gt;EntityManager -->
<g id="edge13" class="edge">
<title>Entity-&gt;EntityManager</title>
<path fill="none" stroke="#000000" d="M449,-944.5238C449,-935.7557 449,-926.8969 449,-918.1169"/>
<polygon fill="#000000" stroke="#000000" points="452.5001,-917.8564 449,-907.8564 445.5001,-917.8564 452.5001,-917.8564"/>
</g>
<!-- SceneInterface -->
<g id="node14" class="node">
<title>SceneInterface</title>
<polygon fill="none" stroke="#000000" points="375.4142,-561.9 375.4142,-661.9 522.5858,-661.9 522.5858,-561.9 375.4142,-561.9"/>
<text text-anchor="middle" x="449" y="-645.3" font-family="Times,serif" font-size="14.00" fill="#000000">interface</text>
<text text-anchor="middle" x="449" y="-628.5" font-family="Times,serif" font-size="14.00" fill="#000000">Scene</text>
<polyline fill="none" stroke="#000000" points="375.4142,-620.3 522.5858,-620.3 "/>
<text text-anchor="start" x="383.4142" y="-603.7" font-family="Times,serif" font-size="14.00" fill="#000000">+ update() : void</text>
<text text-anchor="start" x="383.4142" y="-586.9" font-family="Times,serif" font-size="14.00" fill="#000000">+ handleTrigger(char)</text>
<text text-anchor="start" x="383.4142" y="-570.1" font-family="Times,serif" font-size="14.00" fill="#000000">+ init(std::string) : void</text>
</g>
<!-- EntityManager&#45;&gt;SceneInterface -->
<g id="edge14" class="edge">
<title>EntityManager-&gt;SceneInterface</title>
<path fill="none" stroke="#000000" d="M449,-698.6398C449,-689.5811 449,-680.6304 449,-672.1162"/>
<polygon fill="#000000" stroke="#000000" points="452.5001,-671.9693 449,-661.9693 445.5001,-671.9694 452.5001,-671.9693"/>
</g>
<!-- GameScene -->
<g id="node15" class="node">
<title>GameScene</title>
<polygon fill="none" stroke="#000000" points="239.67,-374.5 239.67,-524.9 440.33,-524.9 440.33,-374.5 239.67,-374.5"/>
<text text-anchor="middle" x="340" y="-508.3" font-family="Times,serif" font-size="14.00" fill="#000000">GameScene :: public Scene</text>
<polyline fill="none" stroke="#000000" points="239.67,-500.1 440.33,-500.1 "/>
<text text-anchor="start" x="247.67" y="-483.5" font-family="Times,serif" font-size="14.00" fill="#000000">- entityManager : EntityManager</text>
<text text-anchor="start" x="247.67" y="-466.7" font-family="Times,serif" font-size="14.00" fill="#000000">- makePositionCenter()</text>
<text text-anchor="start" x="247.67" y="-449.9" font-family="Times,serif" font-size="14.00" fill="#000000">- spawnPlayer()</text>
<text text-anchor="start" x="247.67" y="-433.1" font-family="Times,serif" font-size="14.00" fill="#000000">- sGravity() : void</text>
<text text-anchor="start" x="247.67" y="-416.3" font-family="Times,serif" font-size="14.00" fill="#000000">- sCollision() : void</text>
<text text-anchor="start" x="247.67" y="-399.5" font-family="Times,serif" font-size="14.00" fill="#000000">- sMovement() : void </text>
<text text-anchor="start" x="247.67" y="-382.7" font-family="Times,serif" font-size="14.00" fill="#000000">- sRender() : void</text>
</g>
<!-- SceneInterface&#45;&gt;GameScene -->
<g id="edge15" class="edge">
<title>SceneInterface-&gt;GameScene</title>
<path fill="none" stroke="#000000" d="M415.1092,-561.468C409.1156,-552.5491 402.732,-543.0498 396.3148,-533.5005"/>
<polygon fill="#000000" stroke="#000000" points="399.1585,-531.457 390.6758,-525.1092 393.3485,-535.3614 399.1585,-531.457"/>
</g>
<!-- MenuScene -->
<g id="node16" class="node">
<title>MenuScene</title>
<polygon fill="none" stroke="#000000" points="458.67,-408.1 458.67,-491.3 659.33,-491.3 659.33,-408.1 458.67,-408.1"/>
<text text-anchor="middle" x="559" y="-474.7" font-family="Times,serif" font-size="14.00" fill="#000000">MenuScene :: public Scene</text>
<polyline fill="none" stroke="#000000" points="458.67,-466.5 659.33,-466.5 "/>
<text text-anchor="start" x="466.67" y="-449.9" font-family="Times,serif" font-size="14.00" fill="#000000">- entityManager : EntityManager</text>
<text text-anchor="start" x="466.67" y="-433.1" font-family="Times,serif" font-size="14.00" fill="#000000">- sRender() : void</text>
<text text-anchor="start" x="466.67" y="-416.3" font-family="Times,serif" font-size="14.00" fill="#000000">- sMovement() : void</text>
</g>
<!-- SceneInterface&#45;&gt;MenuScene -->
<g id="edge16" class="edge">
<title>SceneInterface-&gt;MenuScene</title>
<path fill="none" stroke="#000000" d="M483.2017,-561.468C496.4967,-541.8639 511.6932,-519.456 524.9716,-499.8764"/>
<polygon fill="#000000" stroke="#000000" points="528.012,-501.629 530.7281,-491.3882 522.2186,-497.7 528.012,-501.629"/>
</g>
<!-- SceneManager -->
<g id="node17" class="node">
<title>SceneManager</title>
<polygon fill="none" stroke="#000000" points="312.7033,-229.5 312.7033,-337.5 585.2967,-337.5 585.2967,-229.5 312.7033,-229.5"/>
<text text-anchor="middle" x="449" y="-320.9" font-family="Times,serif" font-size="14.00" fill="#000000">SceneManager</text>
<polyline fill="none" stroke="#000000" points="312.7033,-312.7 585.2967,-312.7 "/>
<text text-anchor="start" x="320.7033" y="-296.1" font-family="Times,serif" font-size="14.00" fill="#000000">- sceneMap: std::map(SCENE_TYPE, Scene)</text>
<text text-anchor="start" x="320.7033" y="-279.3" font-family="Times,serif" font-size="14.00" fill="#000000"> - currentScene : Scene</text>
<polyline fill="none" stroke="#000000" points="312.7033,-271.1 585.2967,-271.1 "/>
<text text-anchor="start" x="320.7033" y="-254.5" font-family="Times,serif" font-size="14.00" fill="#000000">+ getCurrentScene() : Scene</text>
<text text-anchor="start" x="320.7033" y="-237.7" font-family="Times,serif" font-size="14.00" fill="#000000"> + changeScene(SCENE_TYPE) : void</text>
</g>
<!-- GameScene&#45;&gt;SceneManager -->
<g id="edge17" class="edge">
<title>GameScene-&gt;SceneManager</title>
<path fill="none" stroke="#000000" d="M389.3973,-374.3805C395.6075,-364.9114 401.9068,-355.3063 407.9689,-346.063"/>
<polygon fill="#000000" stroke="#000000" points="410.9027,-347.9717 413.4601,-337.6901 405.0492,-344.1327 410.9027,-347.9717"/>
</g>
<!-- MenuScene&#45;&gt;SceneManager -->
<g id="edge18" class="edge">
<title>MenuScene-&gt;SceneManager</title>
<path fill="none" stroke="#000000" d="M531.2424,-407.7607C518.8799,-389.0822 504.0609,-366.6919 490.4283,-346.0944"/>
<polygon fill="#000000" stroke="#000000" points="493.3085,-344.1046 484.8707,-337.6973 487.4712,-347.968 493.3085,-344.1046"/>
</g>
<!-- Game -->
<g id="node18" class="node">
<title>Game</title>
<polygon fill="none" stroke="#000000" points="308.2268,-.5 308.2268,-192.5 589.7732,-192.5 589.7732,-.5 308.2268,-.5"/>
<text text-anchor="middle" x="449" y="-175.9" font-family="Times,serif" font-size="14.00" fill="#000000">Game</text>
<polyline fill="none" stroke="#000000" points="308.2268,-167.7 589.7732,-167.7 "/>
<text text-anchor="start" x="316.2268" y="-151.1" font-family="Times,serif" font-size="14.00" fill="#000000">- sceneManager: SceneManager</text>
<text text-anchor="start" x="316.2268" y="-134.3" font-family="Times,serif" font-size="14.00" fill="#000000">- window : sf::Window</text>
<text text-anchor="start" x="316.2268" y="-117.5" font-family="Times,serif" font-size="14.00" fill="#000000">- imageMap : std::map(std::string, sf::Image)</text>
<text text-anchor="start" x="316.2268" y="-100.7" font-family="Times,serif" font-size="14.00" fill="#000000">- textureMap : std::map(std::string, sf::Texture)</text>
<text text-anchor="start" x="316.2268" y="-83.9" font-family="Times,serif" font-size="14.00" fill="#000000">- sInput() : void</text>
<text text-anchor="start" x="316.2268" y="-67.1" font-family="Times,serif" font-size="14.00" fill="#000000">- toggleGrid() : void</text>
<text text-anchor="start" x="316.2268" y="-50.3" font-family="Times,serif" font-size="14.00" fill="#000000">- toggleBoundingBox() : void</text>
<polyline fill="none" stroke="#000000" points="308.2268,-42.1 589.7732,-42.1 "/>
<text text-anchor="start" x="316.2268" y="-25.5" font-family="Times,serif" font-size="14.00" fill="#000000">+ init() : void</text>
<text text-anchor="start" x="316.2268" y="-8.7" font-family="Times,serif" font-size="14.00" fill="#000000">+ run() : void</text>
</g>
<!-- SceneManager&#45;&gt;Game -->
<g id="edge19" class="edge">
<title>SceneManager-&gt;Game</title>
<path fill="none" stroke="#000000" d="M449,-229.4119C449,-220.9358 449,-211.9309 449,-202.759"/>
<polygon fill="#000000" stroke="#000000" points="452.5001,-202.7581 449,-192.7582 445.5001,-202.7582 452.5001,-202.7581"/>
</g>
</g>
</svg>